# xmcd
#
# Track frame offsets: 
#        150
#        23499
#        62764
#        91652
#        131772
#        159299
#
# Disc length: 2605 seconds
#
# Revision: 0
# Processed by: cddbd v1.5.2PL0 Copyright (c) Steve Scherf et al.
# Submitted via: ExactAudioCopy v1.2
#
DISCID=3c0a2b06
DTITLE=Nasta Super and Chris Cain - Ramaphonic Session
DYEAR=2017
DGENRE=Blues
TTITLE0=Cold Women With Worm Hearts
TTITLE1=Ain't Nobody's Business
TTITLE2=Barefootin
TTITLE3=Sweet Sixteen
TTITLE4=Help The Poor
TTITLE5=Guess Who
EXTD=
EXTT0=
EXTT1=
EXTT2=
EXTT3=
EXTT4=
EXTT5=
PLAYORDER=
